<svg width="721" height="675" viewBox="0 0 721 675" fill="none" xmlns="http://www.w3.org/2000/svg">
<path d="M611.932 518.539L611.932 518.54C611.789 518.718 611.651 518.986 611.518 519.289C611.381 519.603 611.231 519.996 611.073 520.454C610.756 521.369 610.396 522.567 610.015 523.96C609.252 526.747 608.401 530.337 607.644 534.061C594.57 598.368 556.914 647.541 505.15 668.041L492.168 673.182L246.13 673.842L0.5 674.499V501.03C0.5 309.945 0.771898 304.296 11.2067 269.678C25.6959 221.61 58.0479 181.797 97.1391 163.838C100.99 162.069 103.909 160.721 106.142 159.551C108.373 158.382 109.955 157.373 111.113 156.273C113.464 154.041 113.999 151.49 114.908 146.87C128.337 78.6773 161.418 32.0378 211.849 9.99052L211.648 9.53239L211.849 9.99051C218.819 6.94268 223.676 5.14599 229.475 3.96343C235.284 2.77879 242.055 2.2069 252.859 1.63264C283.699 -0.00662959 670.656 0.595244 715.152 0.664453C716.922 0.667206 718.15 0.669116 718.792 0.670009C718.802 2.03454 718.84 5.83781 718.898 11.6565C719.163 38.3166 719.849 107.286 720.232 177.852C720.472 222.236 720.593 267.256 720.414 302.785C720.325 320.551 720.161 335.941 719.899 347.693C719.637 359.462 719.277 367.544 718.804 370.72C709.125 435.612 674.925 487.112 626.014 510.612C622.578 512.263 619.29 513.968 616.759 515.386C615.494 516.095 614.413 516.734 613.595 517.261C613.187 517.525 612.839 517.763 612.565 517.97C612.3 518.17 612.073 518.364 611.932 518.539ZM544.209 152.743H544.426L544.574 152.584L582.44 112.166L582.075 111.825L582.44 112.166C592.861 101.042 602.856 89.476 610.181 80.553C613.843 76.0919 616.841 72.2878 618.892 69.5278C619.917 68.149 620.71 67.0238 621.233 66.2046C621.493 65.7968 621.694 65.4525 621.823 65.1844C621.887 65.052 621.942 64.9211 621.975 64.8007C621.991 64.7404 622.006 64.6682 622.01 64.5908C622.013 64.5178 622.008 64.4027 621.95 64.2829C621.874 64.1241 621.742 64.0527 621.7 64.0308C621.641 64.0004 621.583 63.9818 621.54 63.97C621.452 63.9458 621.348 63.9288 621.242 63.9155C621.025 63.8883 620.724 63.8681 620.35 63.8529C619.599 63.8223 618.506 63.8106 617.098 63.815C614.278 63.8236 610.166 63.8965 604.924 64.0152C598.956 64.1502 591.516 64.3447 582.843 64.5714C576.278 64.743 569.006 64.9331 561.13 65.1299C524.562 66.0435 474.95 67.1024 422.5 67.1311H240.325H240.225L240.133 67.1694L227.604 72.3798C211.691 78.995 197.56 90.5404 187.106 105.458C182.867 111.508 177.964 120.634 174.121 129.044C172.199 133.251 170.539 137.288 169.357 140.681C168.184 144.051 167.459 146.851 167.459 148.552C167.459 148.876 167.561 149.191 167.809 149.469C168.042 149.73 168.38 149.931 168.805 150.097C169.65 150.426 171.01 150.679 173.111 150.887C177.332 151.303 184.74 151.552 197.498 151.731C212.175 151.937 233.962 152.051 266.179 152.22C289.998 152.344 319.518 152.499 356.081 152.743H356.084H544.209ZM366.168 218.22C199.003 221.471 175.11 221.535 168.99 221.537C168.904 221.307 168.844 221.153 168.811 221.079C168.805 221.064 168.796 221.044 168.785 221.024C168.78 221.015 168.77 220.997 168.757 220.976C168.75 220.966 168.733 220.943 168.722 220.929C168.715 220.921 168.702 220.908 168.687 220.894C168.666 220.874 168.64 220.851 168.62 220.836C168.549 220.795 168.332 220.747 168.191 220.768C168.056 220.832 167.897 221.007 167.861 221.089C167.848 221.134 167.836 221.208 167.835 221.236C167.835 221.254 167.836 221.284 167.837 221.297C167.84 221.338 167.849 221.374 167.852 221.385L167.852 221.386C167.865 221.442 167.893 221.533 167.926 221.638C168.067 222.079 168.415 223.089 168.933 224.529C169.971 227.412 171.703 232.038 173.863 237.328C178.174 247.886 184.217 261.161 189.86 268.441C195.795 276.102 205.093 285.596 210.549 289.556L210.651 289.63C215.553 293.187 219.287 295.897 224.129 297.933C229.008 299.984 234.984 301.341 244.393 302.246C263.132 304.048 295.643 304.071 360.561 304.115L361.191 304.116C407.264 304.146 437.646 304.341 457.811 304.831C477.994 305.321 487.895 306.107 493.043 307.307C545.378 319.512 586.232 365.082 604.629 432.012C606.024 437.089 607.281 440.828 608.434 443.278C609.009 444.5 609.573 445.432 610.137 446.052C610.694 446.665 611.332 447.057 612.04 446.974L611.981 446.477L612.04 446.974C612.866 446.876 613.845 446.525 614.927 445.992C616.016 445.455 617.238 444.717 618.555 443.818C621.188 442.019 624.228 439.553 627.376 436.695C633.672 430.978 640.437 423.657 645.297 416.884C650.905 409.066 657.727 396.821 660.465 389.648C665.295 376.995 667.838 368.524 669.107 347.173C670.374 325.855 670.372 291.66 670.12 227.552C669.97 189.699 669.696 160.298 669.315 140.304C669.125 130.307 668.907 122.658 668.665 117.478C668.544 114.889 668.417 112.909 668.283 111.56C668.216 110.887 668.146 110.357 668.072 109.983C668.036 109.799 667.995 109.633 667.946 109.501C667.921 109.436 667.888 109.36 667.842 109.29C667.803 109.229 667.714 109.11 667.553 109.046C667.247 108.926 666.909 109.01 666.656 109.103C666.374 109.206 666.053 109.378 665.706 109.595C665.008 110.032 664.138 110.701 663.158 111.541C661.195 113.224 658.746 115.634 656.278 118.366C651.369 123.803 628.229 148.528 604.856 173.314L562.507 218.22L366.178 218.22L366.168 218.22ZM117.519 238.077L117.516 238.064L117.512 238.051C116.059 233.526 115.383 230.061 114.913 227.653C114.88 227.485 114.849 227.323 114.818 227.166C114.584 225.972 114.387 225.023 114.141 224.385C114.018 224.065 113.863 223.769 113.642 223.555C113.399 223.321 113.093 223.204 112.746 223.236C112.432 223.265 112.124 223.411 111.828 223.604C111.526 223.8 111.191 224.075 110.818 224.414C110.073 225.093 109.117 226.089 107.88 227.382L107.703 227.566C105.223 230.159 101.589 233.957 96.148 238.983L96.1404 238.99L96.133 238.998C87.0057 248.159 76.2443 261.662 67.7617 276.621C59.2885 291.564 53.0592 308.012 53.0522 323.066C51.9124 334.286 51.3854 383.025 51.6978 447.953C51.9274 495.746 52.1289 522.402 52.5915 537.11C52.8225 544.457 53.1193 548.849 53.5226 551.409C53.723 552.681 53.9567 553.552 54.2502 554.115C54.3995 554.402 54.5785 554.637 54.8031 554.801C55.0366 554.971 55.2918 555.044 55.5498 555.044C55.7244 555.044 55.8799 554.973 55.9791 554.922C56.0936 554.862 56.2162 554.781 56.3427 554.687C56.597 554.5 56.9101 554.231 57.2745 553.892C58.0054 553.213 58.9795 552.219 60.1643 550.951C62.536 548.411 65.776 544.743 69.649 540.223C77.3963 531.18 87.6893 518.712 98.6591 504.998L138.389 455.328H346.922C425.198 455.328 477.395 455.162 510.022 454.749C526.335 454.542 537.762 454.273 545.113 453.932C548.786 453.761 551.452 453.572 553.205 453.362C554.078 453.257 554.744 453.145 555.201 453.022C555.425 452.961 555.63 452.89 555.789 452.798C555.912 452.728 556.195 452.539 556.195 452.183C556.195 451.454 555.981 450.416 555.62 449.174C555.255 447.919 554.727 446.412 554.073 444.724C552.763 441.347 550.936 437.224 548.859 432.911C544.709 424.29 539.545 414.871 535.503 409.103C525.753 395.191 510.02 382.381 494.581 375.783C489.195 373.482 485.063 372.282 466.988 371.474C448.922 370.665 416.86 370.246 355.579 369.533C299.496 368.881 267.258 368.393 247.94 367.646C228.599 366.898 222.274 365.89 217.958 364.236C170.428 346.031 132.926 296.79 117.519 238.077ZM157.844 523.097H157.605L157.455 523.284L125.882 562.457C117.197 573.233 109.3 583.396 103.573 591.088C100.71 594.934 98.3866 598.167 96.7771 600.552C95.973 601.744 95.3426 602.73 94.9114 603.48C94.6963 603.854 94.5258 604.177 94.4076 604.442C94.3006 604.682 94.2004 604.949 94.2004 605.178C94.2004 605.597 94.4734 605.894 94.7824 606.091C95.092 606.289 95.5299 606.452 96.0857 606.595C97.2056 606.883 98.961 607.13 101.539 607.347C106.704 607.78 115.28 608.096 128.934 608.325C156.248 608.782 203.938 608.89 285.441 608.874C290.895 608.873 296.203 608.872 301.371 608.871C396.418 608.855 443.976 608.847 470.153 607.118C483.954 606.207 491.861 604.815 497.667 602.669C502.882 600.742 506.385 598.212 510.896 594.953C511.413 594.579 511.944 594.195 512.492 593.802C522.099 586.91 531.804 576.056 539.631 564.253C547.458 552.452 553.439 539.653 555.56 528.851L556.573 523.694L556.691 523.097H556.083H356.963H157.844Z" fill="black" stroke="black"/>
</svg>
